<svg width="3272" height="592" viewBox="0 0 3272 592" fill="none" xmlns="http://www.w3.org/2000/svg">
<path d="M696.24 430.812C702.513 444.939 706 460.577 706 477.03C706 539.99 654.96 591.03 592 591.03C529.04 591.03 478 539.99 478 477.03C478 471.506 478.394 466.073 479.153 460.759L527.095 454.146C524.445 461.443 523 469.318 523 477.53C523 515.361 553.668 546.03 591.5 546.03C629.332 546.03 660 515.361 660 477.53C660 462.623 655.237 448.829 647.151 437.584L696.24 430.812ZM592 363.03C632.415 363.03 667.917 384.061 688.161 415.776L633.393 423.331C621.811 414.366 607.279 409.03 591.5 409.03C568.969 409.03 548.979 419.908 536.495 436.698L482.829 444.1C496.958 397.194 540.489 363.03 592 363.03Z" fill="#373737"/>
<circle cx="591.5" cy="477.53" r="29.5" fill="#BD0052"/>
<path d="M1207.7 252.896C1245.22 271.556 1271 310.282 1271 355.03C1271 417.991 1219.96 469.03 1157 469.03C1115.09 469.03 1078.46 446.415 1058.66 412.723L1091.57 377.423C1100.71 404.518 1126.32 424.03 1156.5 424.03C1194.33 424.03 1225 393.362 1225 355.53C1225 323.679 1203.26 296.905 1173.81 289.236L1207.7 252.896ZM1157 241.029C1169.15 241.029 1180.85 242.931 1191.83 246.45L1153.95 287.076C1117.3 288.42 1088 318.554 1088 355.53C1088 356.275 1088.01 357.017 1088.04 357.756L1051.12 397.35C1045.88 384.265 1043 369.984 1043 355.03C1043 292.07 1094.04 241.029 1157 241.029Z" fill="#373737"/>
<circle cx="1156.5" cy="355.53" r="29.5" fill="#BD0052"/>
<path d="M425.455 519C446.654 519 462.396 540.844 467.947 545.397C467.947 545.397 494.982 579.026 510.36 591H226L292.434 579.711C292.458 579.687 301.725 570.477 308.599 568.672C315.603 566.833 327.046 570.784 327.074 570.794C327.123 570.725 340.46 551.873 352.939 549.104C362.951 546.884 378.766 553.604 378.805 553.62C382.639 538.633 405.833 519 425.455 519Z" fill="#D9D9D9" fill-opacity="0.38"/>
<path d="M702.088 560.649C937.571 573.985 1266 591 1266 591H673.64C684.632 582.441 694.244 572.195 702.088 560.649Z" fill="#D9D9D9" fill-opacity="0.38"/>
<path d="M725.394 4.60766C726.716 0.974819 730.733 -0.898177 734.366 0.42407L828.685 34.7532L855.924 7.51489C860.61 2.82899 868.208 2.82896 872.894 7.51489L887.086 21.762L888.506 20.343C894.755 14.095 904.885 14.095 911.133 20.343L920.789 29.9993C927.038 36.2477 927.038 46.3788 920.789 52.6272L919.308 54.1077L1077.39 212.795C1137.74 173.252 1233 180.03 1219.91 216.159L1010.75 442.51L747.515 485.836C738.796 487.271 730.563 481.366 729.128 472.647L719.081 411.605L404.125 455.243C402.607 451.957 401.227 448.587 399.992 445.138C382.211 395.504 398.078 339.806 437.374 292.804L274.425 339.815C268.322 341.575 261.948 338.055 260.187 331.952C258.426 325.85 261.946 319.475 268.049 317.714L471.591 258.993C497.709 237.46 529.398 219.249 565.247 206.406C687.994 162.433 813.02 198.022 844.5 285.896C854.364 313.43 853.87 342.83 844.768 371.576L975.855 350.001C983.009 320.442 999.567 289.122 1022.83 261.483L829.364 68.0178L789.456 107.924C784.769 112.61 777.171 112.61 772.485 107.924C767.799 103.238 767.799 95.6396 772.485 90.9534L817.762 45.676L762.736 25.6487L762.039 45.8801C762.039 45.8801 762.806 53.5108 759.454 55.4358C756.101 57.3607 751.823 56.2036 749.898 52.8508L726.485 12.0706C726.138 11.4673 725.893 10.8338 725.741 10.1897C724.886 8.51849 724.701 6.51064 725.394 4.60766Z" fill="#BD0052"/>
<rect x="212" y="172.433" width="229.219" height="138.587" rx="16" transform="rotate(-16 212 172.433)" fill="#373737"/>
<path d="M229.783 288.198L92.1719 312.84L221.875 260.837L0 304.201L211.196 223.375L229.783 288.198Z" fill="#BD0052"/>
<path d="M211.196 223.375L73.457 248.054L203.217 196.03L211.185 223.337L211.196 223.375Z" fill="#BD0052"/>
<path d="M1415.55 381.515C1410.67 381.515 1408.86 378.829 1410.13 373.458L1454.81 179.513C1456.08 174.142 1459.16 171.456 1464.04 171.456H1524.1C1546.95 171.456 1564.28 176.583 1576.1 186.837C1588.01 197.091 1593.97 210.958 1593.97 228.439C1593.97 246.115 1586.84 261.984 1572.58 276.046C1558.42 290.109 1534.06 297.14 1499.49 297.14H1455.84L1438.26 373.458C1436.99 378.829 1433.91 381.515 1429.03 381.515H1415.55ZM1461.4 273.116H1506.96C1527.17 273.116 1541.97 269.308 1551.34 261.691C1560.72 253.976 1565.41 243.868 1565.41 231.368C1565.41 218.087 1561.74 208.81 1554.42 203.536C1547.1 198.165 1535.28 195.48 1518.97 195.48H1479.27L1461.4 273.116ZM1600.42 381.515C1596.02 381.515 1594.31 379.318 1595.29 374.923L1627.81 234.298C1628.79 229.904 1631.47 227.706 1635.87 227.706H1648.46C1652.86 227.706 1654.57 229.904 1653.59 234.298L1621.07 374.923C1620.09 379.318 1617.41 381.515 1613.01 381.515H1600.42ZM1642.31 199.874C1637.92 199.874 1636.26 197.677 1637.33 193.282L1640.26 180.685C1641.24 176.29 1643.92 174.093 1648.32 174.093H1660.91C1665.31 174.093 1667.02 176.29 1666.04 180.685L1663.11 193.282C1662.04 197.677 1659.3 199.874 1654.91 199.874H1642.31ZM1667.8 381.515C1663.4 381.515 1661.7 379.318 1662.67 374.923L1695.19 234.298C1696.17 229.904 1698.85 227.706 1703.25 227.706H1715.55C1719.95 227.706 1721.66 229.904 1720.68 234.298L1716.72 251.876H1717.31C1723.07 244.747 1730.54 238.546 1739.72 233.273C1749 227.902 1759.5 225.216 1771.22 225.216C1787.82 225.216 1799.15 230.245 1805.2 240.304C1811.26 250.265 1812.28 263.937 1808.28 281.32L1786.6 374.923C1785.62 379.318 1782.94 381.515 1778.54 381.515H1765.94C1761.55 381.515 1759.84 379.318 1760.82 374.923L1780.88 288.351C1785.28 269.21 1785.13 257.101 1780.45 252.023C1775.76 246.847 1768.04 244.259 1757.3 244.259C1745.58 244.259 1734.89 249.972 1725.22 261.398C1715.65 272.726 1709.16 285.714 1705.74 300.363L1688.45 374.923C1687.48 379.318 1684.79 381.515 1680.4 381.515H1667.8ZM1852.52 247.042C1848.12 247.042 1846.31 245.333 1847.1 241.915L1849.15 232.833C1849.93 229.415 1852.52 227.706 1856.91 227.706H1874.2L1877.27 214.523C1877.76 212.667 1878.69 210.812 1880.05 208.956L1894.56 190.353C1897.19 186.935 1899.1 185.226 1900.27 185.226H1905.4C1908.33 185.226 1909.4 186.935 1908.62 190.353L1899.98 227.706H1931.18C1935.57 227.706 1937.38 229.415 1936.6 232.833L1934.55 241.915C1933.77 245.333 1931.18 247.042 1926.78 247.042H1895.58L1874.05 340.353C1871.71 350.607 1871.71 357.296 1874.05 360.421C1876.49 363.448 1879.42 364.962 1882.84 364.962C1887.33 364.962 1891.97 364.132 1896.75 362.472C1901.54 360.714 1904.76 359.298 1906.42 358.224C1908.57 356.857 1909.99 357.15 1910.67 359.103L1914.48 369.65C1915.06 371.407 1914.53 372.823 1912.87 373.898C1908.86 376.437 1903 378.781 1895.29 380.929C1887.67 382.98 1879.52 384.005 1870.83 384.005C1862.23 384.005 1855.45 380.343 1850.46 373.019C1845.58 365.695 1844.7 355.343 1847.83 341.964L1869.8 247.042H1852.52ZM1952.56 327.902L1974.24 234.298C1975.22 229.904 1977.91 227.706 1982.3 227.706H1994.9C1999.29 227.706 2001 229.904 2000.03 234.298L1980.1 320.87C1975.71 340.109 1975.81 352.267 1980.4 357.345C1985.08 362.423 1992.8 364.962 2003.54 364.962C2013.89 364.962 2024.2 359.445 2034.45 348.409C2044.8 337.277 2051.73 324.093 2055.25 308.859L2072.39 234.298C2073.37 229.904 2076.05 227.706 2080.45 227.706H2093.04C2097.44 227.706 2099.15 229.904 2098.17 234.298L2063.89 382.833C2059.3 402.853 2051.59 417.794 2040.75 427.657C2029.91 437.618 2011.65 442.599 1985.96 442.599C1969.26 442.599 1957.74 440.988 1951.39 437.765C1945.04 434.542 1940.26 430.734 1937.04 426.339C1934.21 422.433 1934.3 419.113 1937.33 416.378L1945.53 408.761C1948.66 405.929 1951.1 405.929 1952.86 408.761C1955.79 413.448 1960.04 417.062 1965.6 419.601C1971.17 422.238 1979.47 423.556 1990.5 423.556C2002.32 423.556 2012.38 420.187 2020.68 413.448C2029.08 406.808 2035.08 395.675 2038.7 380.05C2040.94 370.089 2042.75 362.521 2044.12 357.345H2043.53C2037.77 364.474 2030.45 370.724 2021.56 376.095C2012.67 381.368 2002.03 384.005 1989.62 384.005C1973.02 384.005 1961.7 379.025 1955.64 369.064C1949.59 359.005 1948.56 345.284 1952.56 327.902ZM2214.48 381.515C2209.6 381.515 2207.79 378.829 2209.06 373.458L2253.74 179.513C2255.01 174.142 2258.08 171.456 2262.96 171.456H2309.69C2344.65 171.456 2368.87 180.001 2382.35 197.091C2395.83 214.181 2402.56 234.249 2402.56 257.296C2402.56 290.499 2392.31 319.503 2371.8 344.308C2351.29 369.113 2319.31 381.515 2275.86 381.515H2214.48ZM2240.85 357.491H2280.1C2312.53 357.491 2336.01 347.14 2350.56 326.437C2365.21 305.734 2372.54 282.101 2372.54 255.538C2372.54 238.741 2368.53 224.484 2360.52 212.765C2352.61 201.046 2333.42 195.187 2302.96 195.187H2278.35L2240.85 357.491ZM2413.84 323.507C2413.84 294.21 2421.46 270.529 2436.7 252.462C2452.03 234.298 2472.93 225.216 2499.39 225.216C2514.53 225.216 2526.73 229.562 2536.01 238.253C2545.39 246.847 2550.07 256.613 2550.07 267.55C2550.07 282.003 2543.14 292.648 2529.27 299.484C2515.5 306.32 2498.41 311.788 2478 315.89L2441.97 323.068C2441.38 326.779 2441.09 328.732 2441.09 328.927C2441.09 338.595 2443.73 346.993 2449 354.122C2454.27 361.251 2463.5 364.816 2476.69 364.816C2487.92 364.816 2496.95 362.765 2503.79 358.663C2510.62 354.562 2515.26 350.851 2517.7 347.531C2521.12 342.941 2524.2 341.915 2526.93 344.454L2535.57 351.925C2537.43 353.585 2537.13 356.32 2534.69 360.128C2532.45 363.644 2526.39 368.527 2516.53 374.777C2506.67 380.929 2492.21 384.005 2473.17 384.005C2452.37 384.005 2437.28 377.999 2427.91 365.988C2418.53 353.878 2413.84 339.718 2413.84 323.507ZM2442.7 302.706L2472.73 296.847C2486.4 294.21 2498.41 290.597 2508.77 286.007C2519.12 281.32 2524.29 274.777 2524.29 266.378C2524.29 259.738 2521.27 254.415 2515.21 250.411C2509.25 246.31 2502.37 244.259 2494.56 244.259C2482.74 244.259 2472.19 248.751 2462.92 257.736C2453.74 266.72 2447 281.71 2442.7 302.706ZM2573.07 381.515C2568.68 381.515 2566.97 379.318 2567.95 374.923L2610.28 192.111C2610.67 190.157 2611.55 188.302 2612.92 186.544L2627.56 167.941C2630.2 164.523 2632.11 162.814 2633.28 162.814H2638.4C2641.33 162.814 2642.41 164.523 2641.63 167.941L2593.73 374.923C2592.75 379.318 2590.06 381.515 2585.67 381.515H2573.07ZM2640.46 381.515C2636.06 381.515 2634.35 379.318 2635.33 374.923L2667.85 234.298C2668.82 229.904 2671.51 227.706 2675.9 227.706H2688.5C2692.9 227.706 2694.61 229.904 2693.63 234.298L2661.11 374.923C2660.13 379.318 2657.45 381.515 2653.05 381.515H2640.46ZM2682.35 199.874C2677.96 199.874 2676.29 197.677 2677.37 193.282L2680.3 180.685C2681.28 176.29 2683.96 174.093 2688.36 174.093H2700.95C2705.35 174.093 2707.06 176.29 2706.08 180.685L2703.15 193.282C2702.08 197.677 2699.34 199.874 2694.95 199.874H2682.35ZM2720.29 234.884C2719.7 230.099 2721.56 227.706 2725.86 227.706H2740.36C2743.48 227.706 2745.24 229.611 2745.63 233.419L2754.42 330.099C2754.81 334.005 2755.15 338.448 2755.45 343.429C2755.74 348.409 2755.88 353.097 2755.88 357.491H2756.47C2758.23 353.097 2759.89 349.435 2761.45 346.505C2763.11 343.478 2766.14 338.009 2770.53 330.099L2823.85 233.419C2826 229.611 2828.64 227.706 2831.76 227.706H2849.2C2853.49 227.706 2854.27 230.099 2851.54 234.884L2771.71 372.579C2768.29 378.536 2764.97 381.515 2761.74 381.515H2742.41C2739.19 381.515 2737.23 378.536 2736.55 372.579L2720.29 234.884ZM2850.95 323.507C2850.95 294.21 2858.57 270.529 2873.8 252.462C2889.14 234.298 2910.04 225.216 2936.5 225.216C2951.64 225.216 2963.84 229.562 2973.12 238.253C2982.5 246.847 2987.18 256.613 2987.18 267.55C2987.18 282.003 2980.25 292.648 2966.38 299.484C2952.61 306.32 2935.52 311.788 2915.11 315.89L2879.08 323.068C2878.49 326.779 2878.2 328.732 2878.2 328.927C2878.2 338.595 2880.84 346.993 2886.11 354.122C2891.38 361.251 2900.61 364.816 2913.79 364.816C2925.03 364.816 2934.06 362.765 2940.89 358.663C2947.73 354.562 2952.37 350.851 2954.81 347.531C2958.23 342.941 2961.3 341.915 2964.04 344.454L2972.68 351.925C2974.54 353.585 2974.24 356.32 2971.8 360.128C2969.56 363.644 2963.5 368.527 2953.64 374.777C2943.78 380.929 2929.32 384.005 2910.28 384.005C2889.48 384.005 2874.39 377.999 2865.02 365.988C2855.64 353.878 2850.95 339.718 2850.95 323.507ZM2879.81 302.706L2909.84 296.847C2923.51 294.21 2935.52 290.597 2945.88 286.007C2956.23 281.32 2961.4 274.777 2961.4 266.378C2961.4 259.738 2958.38 254.415 2952.32 250.411C2946.36 246.31 2939.48 244.259 2931.67 244.259C2919.85 244.259 2909.3 248.751 2900.03 257.736C2890.85 266.72 2884.11 281.71 2879.81 302.706ZM3010.18 381.515C3005.79 381.515 3004.08 379.318 3005.05 374.923L3037.57 234.298C3038.55 229.904 3041.24 227.706 3045.63 227.706H3057.94C3062.33 227.706 3064.04 229.904 3063.06 234.298L3057.64 257.736H3058.23C3065.26 246.7 3072.44 238.546 3079.76 233.273C3087.18 227.902 3095.92 225.216 3105.98 225.216C3111.74 225.216 3115.8 225.753 3118.14 226.827C3120 227.609 3120.48 229.073 3119.61 231.222L3114.77 243.234C3114.09 244.991 3112.67 245.675 3110.52 245.284C3107.2 244.601 3103.83 244.259 3100.42 244.259C3089.77 244.259 3078.98 251.193 3068.04 265.06C3057.11 278.829 3049.93 293.038 3046.51 307.687L3030.84 374.923C3029.86 379.318 3027.17 381.515 3022.78 381.515H3010.18ZM3124.44 327.902L3146.12 234.298C3147.1 229.904 3149.78 227.706 3154.18 227.706H3166.77C3171.17 227.706 3172.88 229.904 3171.9 234.298L3151.98 320.87C3147.58 340.109 3147.68 352.267 3152.27 357.345C3156.96 362.423 3164.67 364.962 3175.42 364.962C3185.77 364.962 3196.07 359.445 3206.32 348.409C3216.68 337.277 3223.61 324.093 3227.12 308.859L3244.26 234.298C3245.24 229.904 3247.93 227.706 3252.32 227.706H3264.92C3269.31 227.706 3271.02 229.904 3270.04 234.298L3235.77 382.833C3231.18 402.853 3223.46 417.794 3212.62 427.657C3201.78 437.618 3183.52 442.599 3157.84 442.599C3141.14 442.599 3129.62 440.988 3123.27 437.765C3116.92 434.542 3112.13 430.734 3108.91 426.339C3106.08 422.433 3106.18 419.113 3109.21 416.378L3117.41 408.761C3120.53 405.929 3122.97 405.929 3124.73 408.761C3127.66 413.448 3131.91 417.062 3137.48 419.601C3143.04 422.238 3151.34 423.556 3162.38 423.556C3174.2 423.556 3184.25 420.187 3192.55 413.448C3200.95 406.808 3206.96 395.675 3210.57 380.05C3212.82 370.089 3214.62 362.521 3215.99 357.345H3215.41C3209.64 364.474 3202.32 370.724 3193.43 376.095C3184.55 381.368 3173.9 384.005 3161.5 384.005C3144.9 384.005 3133.57 379.025 3127.52 369.064C3121.46 359.005 3120.44 345.284 3124.44 327.902Z" fill="#373737"/>
</svg>
