<svg width="1271" height="592" viewBox="0 0 1271 592" fill="none" xmlns="http://www.w3.org/2000/svg">
<path d="M696.24 430.812C702.513 444.939 706 460.577 706 477.03C706 539.99 654.96 591.03 592 591.03C529.04 591.03 478 539.99 478 477.03C478 471.506 478.394 466.073 479.153 460.759L527.095 454.146C524.445 461.443 523 469.318 523 477.53C523 515.361 553.668 546.03 591.5 546.03C629.332 546.03 660 515.361 660 477.53C660 462.623 655.237 448.829 647.151 437.584L696.24 430.812ZM592 363.03C632.415 363.03 667.917 384.061 688.161 415.776L633.393 423.331C621.811 414.366 607.279 409.03 591.5 409.03C568.969 409.03 548.979 419.908 536.495 436.698L482.829 444.1C496.958 397.194 540.489 363.03 592 363.03Z" fill="#373737"/>
<circle cx="591.5" cy="477.53" r="29.5" fill="#BD0052"/>
<path d="M1207.7 252.896C1245.22 271.556 1271 310.282 1271 355.03C1271 417.991 1219.96 469.03 1157 469.03C1115.09 469.03 1078.46 446.415 1058.66 412.723L1091.57 377.423C1100.71 404.518 1126.32 424.03 1156.5 424.03C1194.33 424.03 1225 393.362 1225 355.53C1225 323.679 1203.26 296.905 1173.81 289.236L1207.7 252.896ZM1157 241.029C1169.15 241.029 1180.85 242.931 1191.83 246.45L1153.95 287.076C1117.3 288.42 1088 318.554 1088 355.53C1088 356.275 1088.01 357.017 1088.04 357.756L1051.12 397.35C1045.88 384.265 1043 369.984 1043 355.03C1043 292.07 1094.04 241.029 1157 241.029Z" fill="#373737"/>
<circle cx="1156.5" cy="355.53" r="29.5" fill="#BD0052"/>
<path d="M425.455 519C446.654 519 462.396 540.844 467.947 545.397C467.947 545.397 494.982 579.026 510.36 591H226L292.434 579.711C292.458 579.687 301.725 570.477 308.599 568.672C315.603 566.833 327.046 570.784 327.074 570.794C327.123 570.725 340.46 551.873 352.939 549.104C362.951 546.884 378.766 553.604 378.805 553.62C382.639 538.633 405.833 519 425.455 519Z" fill="#D9D9D9" fill-opacity="0.38"/>
<path d="M702.088 560.649C937.571 573.985 1266 591 1266 591H673.64C684.632 582.441 694.244 572.195 702.088 560.649Z" fill="#D9D9D9" fill-opacity="0.38"/>
<path d="M725.394 4.60766C726.716 0.974819 730.733 -0.898177 734.366 0.42407L828.685 34.7532L855.924 7.51489C860.61 2.82899 868.208 2.82896 872.894 7.51489L887.086 21.762L888.506 20.343C894.755 14.095 904.885 14.095 911.133 20.343L920.789 29.9993C927.038 36.2477 927.038 46.3788 920.789 52.6272L919.308 54.1077L1077.39 212.795C1137.74 173.252 1233 180.03 1219.91 216.159L1010.75 442.51L747.515 485.836C738.796 487.271 730.563 481.366 729.128 472.647L719.081 411.605L404.125 455.243C402.607 451.957 401.227 448.587 399.992 445.138C382.211 395.504 398.078 339.806 437.374 292.804L274.425 339.815C268.322 341.575 261.948 338.055 260.187 331.952C258.426 325.85 261.946 319.475 268.049 317.714L471.591 258.993C497.709 237.46 529.398 219.249 565.247 206.406C687.994 162.433 813.02 198.022 844.5 285.896C854.364 313.43 853.87 342.83 844.768 371.576L975.855 350.001C983.009 320.442 999.567 289.122 1022.83 261.483L829.364 68.0178L789.456 107.924C784.769 112.61 777.171 112.61 772.485 107.924C767.799 103.238 767.799 95.6396 772.485 90.9534L817.762 45.676L762.736 25.6487L762.039 45.8801C762.039 45.8801 762.806 53.5108 759.454 55.4358C756.101 57.3607 751.823 56.2036 749.898 52.8508L726.485 12.0706C726.138 11.4673 725.893 10.8338 725.741 10.1897C724.886 8.51849 724.701 6.51064 725.394 4.60766Z" fill="#BD0052"/>
<rect x="212" y="172.433" width="229.219" height="138.587" rx="16" transform="rotate(-16 212 172.433)" fill="#373737"/>
<path d="M229.783 288.198L92.1719 312.84L221.875 260.837L0 304.201L211.196 223.375L229.783 288.198Z" fill="#BD0052"/>
<path d="M211.196 223.375L73.457 248.054L203.217 196.03L211.185 223.337L211.196 223.375Z" fill="#BD0052"/>
</svg>
