<svg width="1871" height="1871" viewBox="0 0 1871 1871" fill="none" xmlns="http://www.w3.org/2000/svg">
<rect width="1871" height="1871" fill="white"/>
<path d="M1012.68 1107.42C1020.65 1125.37 1025.08 1145.24 1025.08 1166.14C1025.08 1246.14 960.226 1311 880.226 1311C800.225 1311 735.371 1246.14 735.371 1166.14C735.371 1159.12 735.872 1152.22 736.837 1145.47L797.755 1137.07C794.388 1146.34 792.551 1156.34 792.551 1166.78C792.551 1214.85 831.52 1253.82 879.591 1253.82C927.661 1253.82 966.63 1214.85 966.63 1166.78C966.63 1147.84 960.578 1130.31 950.305 1116.02L1012.68 1107.42ZM880.226 1021.29C931.579 1021.29 976.69 1048.01 1002.41 1088.31L932.823 1097.91C918.107 1086.52 899.641 1079.74 879.591 1079.74C850.962 1079.74 825.562 1093.56 809.698 1114.9L741.508 1124.3C759.46 1064.7 814.772 1021.29 880.226 1021.29Z" fill="#373737"/>
<ellipse cx="879.591" cy="1166.78" rx="37.4843" ry="37.4843" fill="#BD0052"/>
<path d="M1662.57 881.345C1710.24 905.056 1743 954.264 1743 1011.12C1743 1091.12 1678.15 1155.98 1598.15 1155.98C1544.89 1155.98 1498.35 1127.24 1473.19 1084.43L1515.01 1039.58C1526.62 1074.01 1559.17 1098.8 1597.51 1098.8C1645.58 1098.8 1684.55 1059.83 1684.55 1011.76C1684.55 971.286 1656.93 937.266 1619.5 927.522L1662.57 881.345ZM1598.15 866.268C1613.58 866.268 1628.45 868.684 1642.4 873.156L1594.26 924.779C1547.7 926.486 1510.47 964.774 1510.47 1011.76C1510.47 1012.7 1510.49 1013.65 1510.52 1014.59L1463.6 1064.9C1456.95 1048.27 1453.29 1030.12 1453.29 1011.12C1453.29 931.122 1518.14 866.268 1598.15 866.268Z" fill="#373737"/>
<ellipse cx="1597.51" cy="1011.76" rx="37.4843" ry="37.4843" fill="#BD0052"/>
<path d="M668.605 1219.47C695.542 1219.47 715.545 1247.23 722.598 1253.01C722.598 1253.01 756.949 1295.74 776.49 1310.96H415.167L499.581 1296.61C499.612 1296.58 511.388 1284.88 520.121 1282.59C529.021 1280.25 543.561 1285.27 543.597 1285.28C543.659 1285.2 560.606 1261.24 576.463 1257.72C589.184 1254.9 609.28 1263.44 609.329 1263.46C614.201 1244.42 643.673 1219.47 668.605 1219.47Z" fill="#D9D9D9" fill-opacity="0.38"/>
<path d="M1020.11 1272.39C1319.33 1289.34 1736.65 1310.96 1736.65 1310.96H983.962C997.928 1300.08 1010.14 1287.06 1020.11 1272.39Z" fill="#D9D9D9" fill-opacity="0.38"/>
<path d="M1049.72 565.858C1051.4 561.242 1056.51 558.862 1061.12 560.542L1180.97 604.162L1215.58 569.552C1221.54 563.598 1231.19 563.598 1237.15 569.552L1255.18 587.655L1256.98 585.852C1264.92 577.913 1277.79 577.913 1285.73 585.852L1298 598.122C1305.94 606.061 1305.94 618.934 1298 626.874L1296.12 628.755L1496.99 830.392C1573.67 780.146 1694.71 788.758 1678.08 834.667L1412.31 1122.28L1077.83 1177.33C1066.75 1179.16 1056.29 1171.65 1054.47 1160.57L1041.7 1083.01L641.503 1138.46C639.574 1134.28 637.821 1130 636.251 1125.62C613.657 1062.55 633.82 991.778 683.751 932.055L476.699 991.79C468.945 994.027 460.845 989.554 458.608 981.799C456.371 974.045 460.843 965.945 468.598 963.707L727.229 889.094C760.416 861.732 800.681 838.593 846.232 822.274C1002.2 766.4 1161.07 811.621 1201.07 923.277C1213.6 958.264 1212.97 995.621 1201.41 1032.15L1367.97 1004.73C1377.06 967.174 1398.1 927.377 1427.66 892.257L1181.83 646.43L1131.12 697.137C1125.17 703.092 1115.51 703.092 1109.56 697.137C1103.61 691.182 1103.61 681.528 1109.56 675.573L1167.09 618.041L1097.17 592.594L1096.29 618.301C1096.29 618.301 1097.26 627.997 1093 630.443C1088.74 632.889 1083.31 631.418 1080.86 627.158L1051.11 575.341C1050.67 574.574 1050.36 573.769 1050.16 572.951C1049.08 570.827 1048.84 568.276 1049.72 565.858Z" fill="#BD0052"/>
<rect x="397.379" y="779.106" width="291.257" height="176.096" rx="16" transform="rotate(-16 397.379 779.106)" fill="#373737"/>
<path d="M419.975 926.203L245.118 957.515L409.926 891.437L128 946.537L396.357 843.835L419.975 926.203Z" fill="#BD0052"/>
<path d="M396.357 843.835L221.338 875.194L386.218 809.089L396.343 843.787L396.357 843.835Z" fill="#BD0052"/>
</svg>
